<svg width="954" height="579" viewBox="0 0 954 579" fill="none" xmlns="http://www.w3.org/2000/svg">
<g filter="url(#filter0_d_37_22)">
<path d="M135.5 163V1H257V2.5H260V4H261.5V8.5H263V117.5H261.5V119V121H260V123.5H258V125H254V127H194.5V163H135.5Z" fill="white"/>
<path d="M135.5 163V1H257V2.5H260V4H261.5V8.5H263V117.5H261.5V119V121H260V123.5H258V125H254V127H194.5V163H135.5Z" fill="#77FB38"/>
<path d="M394 0H273V163.5H330.5L330 100.5H336V113.5H338V133H340V150H342V163.5H399.5V89H397.5V87H396V84.5H392V79.5H396V77.5H397.5V75H399.5V6.5H398V4H395.5V2.5H394V0Z" fill="white"/>
<path d="M394 0H273V163.5H330.5L330 100.5H336V113.5H338V133H340V150H342V163.5H399.5V89H397.5V87H396V84.5H392V79.5H396V77.5H397.5V75H399.5V6.5H398V4H395.5V2.5H394V0Z" fill="#77FB38"/>
<path d="M466.5 0H408.5V163.5H466.5V0Z" fill="white"/>
<path d="M466.5 0H408.5V163.5H466.5V0Z" fill="#77FB38"/>
<path d="M476 163.5V0H572.5L577.5 127.5H584.5V0H680V163.5H624V37H617.5L612 163.5H547L541 37H535.5V163.5H476Z" fill="white"/>
<path d="M476 163.5V0H572.5L577.5 127.5H584.5V0H680V163.5H624V37H617.5L612 163.5H547L541 37H535.5V163.5H476Z" fill="#77FB38"/>
<path d="M690.5 163V0H817V31.5L748 35V44.5H817V81L748 84.5V101.5H817V163H690.5Z" fill="white"/>
<path d="M690.5 163V0H817V31.5L748 35V44.5H817V81L748 84.5V101.5H817V163H690.5Z" fill="#77FB38"/>
<path d="M332 205.5H206V241H239.5L240.5 367.5H297.5V241H332V205.5Z" fill="white"/>
<path d="M332 205.5H206V241H239.5L240.5 367.5H297.5V241H332V205.5Z" fill="#77FB38"/>
<path d="M468.5 205.5H342.5L342 367.5H468.5V307.5H399.5V290L468.5 286V249.5H399.5V239.5L468.5 236V205.5Z" fill="white"/>
<path d="M468.5 205.5H342.5L342 367.5H468.5V307.5H399.5V290L468.5 286V249.5H399.5V239.5L468.5 236V205.5Z" fill="#77FB38"/>
<path d="M479.5 215L486 205H597L604.5 215V280H543V241.5H530L535.5 332H543V287.5L604.5 294V361L597 368.5H486L479.5 359.5V215Z" fill="white"/>
<path d="M479.5 215L486 205H597L604.5 215V280H543V241.5H530L535.5 332H543V287.5L604.5 294V361L597 368.5H486L479.5 359.5V215Z" fill="#77FB38"/>
<path d="M616 368.5V205H674.5L676.5 268.5H685L688.5 205H748V368.5H685V305H678L671 368.5H616Z" fill="white"/>
<path d="M616 368.5V205H674.5L676.5 268.5H685L688.5 205H748V368.5H685V305H678L671 368.5H616Z" fill="#77FB38"/>
<path d="M129.5 408.5H4.5V571H129.5V510H60.5V493L129.5 489V453H60.5V443.5L129.5 439V408.5Z" fill="white"/>
<path d="M129.5 408.5H4.5V571H129.5V510H60.5V493L129.5 489V453H60.5V443.5L129.5 439V408.5Z" fill="#77FB38"/>
<path d="M196.5 408.5H141V570.5H266.5V535.5L196.5 525V408.5Z" fill="white"/>
<path d="M196.5 408.5H141V570.5H266.5V535.5L196.5 525V408.5Z" fill="#77FB38"/>
<path d="M404 408.5H279.5H277V570.5H402.5V510H334V493.5L402.5 488.5V453.5L334 452.5V443.5L404 439V408.5Z" fill="white"/>
<path d="M404 408.5H279.5H277V570.5H402.5V510H334V493.5L402.5 488.5V453.5L334 452.5V443.5L404 439V408.5Z" fill="#77FB38"/>
<path d="M533 408.5C533 406.1 459.333 407.5 422.5 408.5L413.5 418.5V561L422.5 570.5H533L541 563.5L539 496.5L477.5 491V535.5H468.5L464 443.5H477.5V483H541V418.5C538.333 416.167 533 410.9 533 408.5Z" fill="white"/>
<path d="M533 408.5C533 406.1 459.333 407.5 422.5 408.5L413.5 418.5V561L422.5 570.5H533L541 563.5L539 496.5L477.5 491V535.5H468.5L464 443.5H477.5V483H541V418.5C538.333 416.167 533 410.9 533 408.5Z" fill="#77FB38"/>
<path d="M550.5 443.5V408.5H675.5V443.5H641.5V570.5H585V443.5H550.5Z" fill="white"/>
<path d="M550.5 443.5V408.5H675.5V443.5H641.5V570.5H585V443.5H550.5Z" fill="#77FB38"/>
<path d="M687 570.5V408.5H806.5L813 416V481L806.5 488V493L813 499V570.5H757L750.5 508H744V570.5H687Z" fill="white"/>
<path d="M687 570.5V408.5H806.5L813 416V481L806.5 488V493L813 499V570.5H757L750.5 508H744V570.5H687Z" fill="#77FB38"/>
<path d="M822.5 418L831.5 408.5H941.5L949.5 418V563L941.5 570.5H829.5L822.5 563V418Z" fill="white"/>
<path d="M822.5 418L831.5 408.5H941.5L949.5 418V563L941.5 570.5H829.5L822.5 563V418Z" fill="#77FB38"/>
</g>
<path d="M206 17V102H200L193.5 17H206Z" fill="black"/>
<path d="M344 23.5H330.5L336 75H344V23.5Z" fill="black"/>
<path d="M757.5 483.5V431.5H744L750.5 483.5H757.5Z" fill="black"/>
<path d="M893 444H879L886.5 535.5H893V444Z" fill="black"/>
<defs>
<filter id="filter0_d_37_22" x="0.5" y="0" width="953" height="579" filterUnits="userSpaceOnUse" color-interpolation-filters="sRGB">
<feFlood flood-opacity="0" result="BackgroundImageFix"/>
<feColorMatrix in="SourceAlpha" type="matrix" values="0 0 0 0 0 0 0 0 0 0 0 0 0 0 0 0 0 0 127 0" result="hardAlpha"/>
<feOffset dy="4"/>
<feGaussianBlur stdDeviation="2"/>
<feComposite in2="hardAlpha" operator="out"/>
<feColorMatrix type="matrix" values="0 0 0 0 0 0 0 0 0 0 0 0 0 0 0 0 0 0 0.25 0"/>
<feBlend mode="normal" in2="BackgroundImageFix" result="effect1_dropShadow_37_22"/>
<feBlend mode="normal" in="SourceGraphic" in2="effect1_dropShadow_37_22" result="shape"/>
</filter>
</defs>
</svg>
